<mxfile host="app.diagrams.net" agent="Mozilla/5.0 (X11; Linux x86_64) AppleWebKit/537.36 (KHTML, like Gecko) Chrome/118.0.5615.213 Safari/537.36" version="26.1.3">
  <diagram name="Page-1" id="bvQDPrfrpt0zgJPPsHLa">
    <mxGraphModel dx="1254" dy="801" grid="1" gridSize="10" guides="1" tooltips="1" connect="1" arrows="1" fold="1" page="1" pageScale="1" pageWidth="4681" pageHeight="3300" math="0" shadow="0">
      <root>
        <mxCell id="0" />
        <mxCell id="1" parent="0" />
        <mxCell id="Pw4hpHj4lTCNHb1y_Igf-1" value="MetaPARES" style="swimlane;fontStyle=0;childLayout=stackLayout;horizontal=1;startSize=26;strokeColor=#FBD5B5;fillColor=none;horizontalStack=0;resizeParent=1;resizeParentMax=0;resizeLast=0;collapsible=1;marginBottom=0;whiteSpace=wrap;html=1;" vertex="1" parent="1">
          <mxGeometry x="370" y="280" width="150" height="78" as="geometry" />
        </mxCell>
        <mxCell id="Pw4hpHj4lTCNHb1y_Igf-2" value="Thing" style="text;strokeColor=#FBD5B5;fillColor=#FBD5B5;align=center;verticalAlign=top;spacingLeft=4;spacingRight=4;overflow=hidden;rotatable=0;points=[[0,0.5],[1,0.5]];portConstraint=eastwest;whiteSpace=wrap;html=1;" vertex="1" parent="Pw4hpHj4lTCNHb1y_Igf-1">
          <mxGeometry y="26" width="150" height="26" as="geometry" />
        </mxCell>
        <mxCell id="Pw4hpHj4lTCNHb1y_Igf-5" value="Reference Source (bibo)" style="text;align=center;verticalAlign=top;spacingLeft=4;spacingRight=4;overflow=hidden;rotatable=0;points=[[0,0.5],[1,0.5]];portConstraint=eastwest;whiteSpace=wrap;html=1;" vertex="1" parent="Pw4hpHj4lTCNHb1y_Igf-1">
          <mxGeometry y="52" width="150" height="26" as="geometry" />
        </mxCell>
        <mxCell id="Pw4hpHj4lTCNHb1y_Igf-6" value="" style="endArrow=classic;html=1;rounded=0;exitX=1;exitY=0.5;exitDx=0;exitDy=0;entryX=0.007;entryY=0;entryDx=0;entryDy=0;entryPerimeter=0;" edge="1" parent="1" source="Pw4hpHj4lTCNHb1y_Igf-1" target="Pw4hpHj4lTCNHb1y_Igf-9">
          <mxGeometry relative="1" as="geometry">
            <mxPoint x="550" y="308.5" as="sourcePoint" />
            <mxPoint x="740" y="308.5" as="targetPoint" />
          </mxGeometry>
        </mxCell>
        <mxCell id="Pw4hpHj4lTCNHb1y_Igf-7" value="references (dublin core)" style="edgeLabel;resizable=0;html=1;;align=center;verticalAlign=middle;" connectable="0" vertex="1" parent="Pw4hpHj4lTCNHb1y_Igf-6">
          <mxGeometry relative="1" as="geometry" />
        </mxCell>
        <mxCell id="Pw4hpHj4lTCNHb1y_Igf-8" value="Nuevos documentos para la biografía de Miguel de Cervantes Saavedra, un comisario real de abastos en los antiguos Reinos de Jaén y Sevilla (1592-1593)" style="swimlane;fontStyle=0;childLayout=stackLayout;horizontal=1;startSize=50;strokeColor=#FBD5B5;fillColor=none;horizontalStack=0;resizeParent=1;resizeParentMax=0;resizeLast=0;collapsible=1;marginBottom=0;whiteSpace=wrap;html=1;" vertex="1" parent="1">
          <mxGeometry x="710" y="270" width="300" height="104" as="geometry" />
        </mxCell>
        <mxCell id="Pw4hpHj4lTCNHb1y_Igf-9" value="Thing" style="text;strokeColor=#FBD5B5;fillColor=#FBD5B5;align=center;verticalAlign=top;spacingLeft=4;spacingRight=4;overflow=hidden;rotatable=0;points=[[0,0.5],[1,0.5]];portConstraint=eastwest;whiteSpace=wrap;html=1;" vertex="1" parent="Pw4hpHj4lTCNHb1y_Igf-8">
          <mxGeometry y="50" width="300" height="26" as="geometry" />
        </mxCell>
        <mxCell id="Pw4hpHj4lTCNHb1y_Igf-10" value="Academic Article (bibo)" style="text;align=center;verticalAlign=top;spacingLeft=4;spacingRight=4;overflow=hidden;rotatable=0;points=[[0,0.5],[1,0.5]];portConstraint=eastwest;whiteSpace=wrap;html=1;" vertex="1" parent="Pw4hpHj4lTCNHb1y_Igf-8">
          <mxGeometry y="76" width="300" height="28" as="geometry" />
        </mxCell>
        <mxCell id="Pw4hpHj4lTCNHb1y_Igf-11" value="" style="endArrow=classic;html=1;rounded=0;exitX=0.121;exitY=1.107;exitDx=0;exitDy=0;entryX=0.671;entryY=-0.015;entryDx=0;entryDy=0;entryPerimeter=0;exitPerimeter=0;" edge="1" parent="1" source="Pw4hpHj4lTCNHb1y_Igf-10" target="Pw4hpHj4lTCNHb1y_Igf-15">
          <mxGeometry relative="1" as="geometry">
            <mxPoint x="680" y="230" as="sourcePoint" />
            <mxPoint x="870" y="190" as="targetPoint" />
          </mxGeometry>
        </mxCell>
        <mxCell id="Pw4hpHj4lTCNHb1y_Igf-12" value="authorList (bibo)" style="edgeLabel;resizable=0;html=1;;align=center;verticalAlign=middle;" connectable="0" vertex="1" parent="Pw4hpHj4lTCNHb1y_Igf-11">
          <mxGeometry relative="1" as="geometry" />
        </mxCell>
        <mxCell id="Pw4hpHj4lTCNHb1y_Igf-15" value="List of authors of &quot;Nuevos documentos para la biografia de Miguel de Cervantes Saavedra...&quot; (2016)" style="swimlane;fontStyle=0;childLayout=stackLayout;horizontal=1;startSize=50;fillColor=none;horizontalStack=0;resizeParent=1;resizeParentMax=0;resizeLast=0;collapsible=1;marginBottom=0;whiteSpace=wrap;html=1;" vertex="1" parent="1">
          <mxGeometry x="390" y="450" width="290" height="76" as="geometry" />
        </mxCell>
        <mxCell id="Pw4hpHj4lTCNHb1y_Igf-16" value="&lt;div&gt;List (rdf)&lt;/div&gt;" style="text;strokeColor=none;fillColor=none;align=center;verticalAlign=top;spacingLeft=4;spacingRight=4;overflow=hidden;rotatable=0;points=[[0,0.5],[1,0.5]];portConstraint=eastwest;whiteSpace=wrap;html=1;" vertex="1" parent="Pw4hpHj4lTCNHb1y_Igf-15">
          <mxGeometry y="50" width="290" height="26" as="geometry" />
        </mxCell>
        <mxCell id="Pw4hpHj4lTCNHb1y_Igf-17" value="" style="endArrow=classic;html=1;rounded=0;exitX=0.732;exitY=1.045;exitDx=0;exitDy=0;entryX=0.444;entryY=0.067;entryDx=0;entryDy=0;exitPerimeter=0;entryPerimeter=0;" edge="1" parent="1" source="Pw4hpHj4lTCNHb1y_Igf-16" target="Pw4hpHj4lTCNHb1y_Igf-19">
          <mxGeometry relative="1" as="geometry">
            <mxPoint x="810" y="571" as="sourcePoint" />
            <mxPoint x="810" y="470" as="targetPoint" />
          </mxGeometry>
        </mxCell>
        <mxCell id="Pw4hpHj4lTCNHb1y_Igf-58" value="first (rdf)" style="edgeLabel;html=1;align=center;verticalAlign=middle;resizable=0;points=[];" vertex="1" connectable="0" parent="Pw4hpHj4lTCNHb1y_Igf-17">
          <mxGeometry x="-0.1392" y="-1" relative="1" as="geometry">
            <mxPoint as="offset" />
          </mxGeometry>
        </mxCell>
        <mxCell id="Pw4hpHj4lTCNHb1y_Igf-19" value="José Cabello Núñez&amp;nbsp;" style="html=1;whiteSpace=wrap;rounded=1;arcSize=50;" vertex="1" parent="1">
          <mxGeometry x="620" y="620.5" width="110" height="50" as="geometry" />
        </mxCell>
        <mxCell id="Pw4hpHj4lTCNHb1y_Igf-20" value="" style="endArrow=classic;html=1;rounded=0;exitX=0.358;exitY=1.109;exitDx=0;exitDy=0;entryX=0.5;entryY=0;entryDx=0;entryDy=0;exitPerimeter=0;" edge="1" parent="1" source="Pw4hpHj4lTCNHb1y_Igf-16" target="Pw4hpHj4lTCNHb1y_Igf-25">
          <mxGeometry relative="1" as="geometry">
            <mxPoint x="710" y="526" as="sourcePoint" />
            <mxPoint x="800" y="530" as="targetPoint" />
          </mxGeometry>
        </mxCell>
        <mxCell id="Pw4hpHj4lTCNHb1y_Igf-21" value="rest (rdf)" style="edgeLabel;resizable=0;html=1;;align=center;verticalAlign=middle;" connectable="0" vertex="1" parent="Pw4hpHj4lTCNHb1y_Igf-20">
          <mxGeometry relative="1" as="geometry" />
        </mxCell>
        <mxCell id="Pw4hpHj4lTCNHb1y_Igf-25" value="nil (rdf)" style="swimlane;fontStyle=0;childLayout=stackLayout;horizontal=1;startSize=26;fillColor=none;horizontalStack=0;resizeParent=1;resizeParentMax=0;resizeLast=0;collapsible=1;marginBottom=0;whiteSpace=wrap;html=1;" vertex="1" parent="1">
          <mxGeometry x="360" y="616.0000000000002" width="130" height="52" as="geometry">
            <mxRectangle x="981" y="570" width="50" height="40" as="alternateBounds" />
          </mxGeometry>
        </mxCell>
        <mxCell id="Pw4hpHj4lTCNHb1y_Igf-26" value="&lt;div&gt;List (rdf)&lt;/div&gt;" style="text;strokeColor=none;fillColor=none;align=center;verticalAlign=top;spacingLeft=4;spacingRight=4;overflow=hidden;rotatable=0;points=[[0,0.5],[1,0.5]];portConstraint=eastwest;whiteSpace=wrap;html=1;" vertex="1" parent="Pw4hpHj4lTCNHb1y_Igf-25">
          <mxGeometry y="26" width="130" height="26" as="geometry" />
        </mxCell>
        <mxCell id="Pw4hpHj4lTCNHb1y_Igf-27" value="" style="endArrow=classic;html=1;rounded=0;exitX=0.99;exitY=0.404;exitDx=0;exitDy=0;exitPerimeter=0;" edge="1" parent="1" target="Pw4hpHj4lTCNHb1y_Igf-29">
          <mxGeometry relative="1" as="geometry">
            <mxPoint x="1010" y="320.006" as="sourcePoint" />
            <mxPoint x="1160" y="320" as="targetPoint" />
          </mxGeometry>
        </mxCell>
        <mxCell id="Pw4hpHj4lTCNHb1y_Igf-28" value="cites (bibo)" style="edgeLabel;resizable=0;html=1;;align=center;verticalAlign=middle;" connectable="0" vertex="1" parent="Pw4hpHj4lTCNHb1y_Igf-27">
          <mxGeometry relative="1" as="geometry" />
        </mxCell>
        <mxCell id="Pw4hpHj4lTCNHb1y_Igf-29" value="Comisión  que  el  proveedor  general  Cristóbal  de Barros  da  al  comisario  Miguel  de  Cervantes  Saavedra,  inserta  en  la  libranza  de  pago  de  9  de  noviembre  de  1593 [Commission that the general supplier Cristóbal de Barros gave to the commissioner Miguel de Cervantes Saavedra, inserted in the payment order of the 9th of November 1593]" style="swimlane;fontStyle=0;childLayout=stackLayout;horizontal=1;startSize=83;strokeColor=#DAEEF3;strokeWidth=3;fillColor=none;horizontalStack=0;resizeParent=1;resizeParentMax=0;resizeLast=0;collapsible=1;marginBottom=0;whiteSpace=wrap;html=1;" vertex="1" parent="1">
          <mxGeometry x="1470" y="251.5" width="410" height="135" as="geometry" />
        </mxCell>
        <mxCell id="Pw4hpHj4lTCNHb1y_Igf-30" value="Record" style="text;strokeColor=#DAEEF3;strokeWidth=3;fillColor=none;align=center;verticalAlign=top;spacingLeft=4;spacingRight=4;overflow=hidden;rotatable=0;points=[[0,0.5],[1,0.5]];portConstraint=eastwest;whiteSpace=wrap;html=1;" vertex="1" parent="Pw4hpHj4lTCNHb1y_Igf-29">
          <mxGeometry y="83" width="410" height="26" as="geometry" />
        </mxCell>
        <mxCell id="Pw4hpHj4lTCNHb1y_Igf-31" value="Document (bibo)" style="text;strokeColor=#DAEEF3;strokeWidth=3;fillColor=none;align=center;verticalAlign=top;spacingLeft=4;spacingRight=4;overflow=hidden;rotatable=0;points=[[0,0.5],[1,0.5]];portConstraint=eastwest;whiteSpace=wrap;html=1;" vertex="1" parent="Pw4hpHj4lTCNHb1y_Igf-29">
          <mxGeometry y="109" width="410" height="26" as="geometry" />
        </mxCell>
        <mxCell id="Pw4hpHj4lTCNHb1y_Igf-32" value="" style="endArrow=classic;html=1;rounded=0;exitX=0.08;exitY=1.058;exitDx=0;exitDy=0;exitPerimeter=0;entryX=0.5;entryY=0;entryDx=0;entryDy=0;" edge="1" parent="1" source="Pw4hpHj4lTCNHb1y_Igf-31" target="Pw4hpHj4lTCNHb1y_Igf-34">
          <mxGeometry relative="1" as="geometry">
            <mxPoint x="1090" y="480" as="sourcePoint" />
            <mxPoint x="1090" y="530" as="targetPoint" />
          </mxGeometry>
        </mxCell>
        <mxCell id="Pw4hpHj4lTCNHb1y_Igf-33" value="has or had instantiation" style="edgeLabel;resizable=0;html=1;;align=center;verticalAlign=middle;" connectable="0" vertex="1" parent="Pw4hpHj4lTCNHb1y_Igf-32">
          <mxGeometry relative="1" as="geometry" />
        </mxCell>
        <mxCell id="Pw4hpHj4lTCNHb1y_Igf-34" value="Transcription of &quot;Comisión que el proveedor general Crisóbal de Barros da al comisario Miguel de Cervantes Saavedra...&quot;" style="swimlane;fontStyle=0;childLayout=stackLayout;horizontal=1;startSize=60;strokeColor=#F5DEB3;strokeWidth=2;fillColor=none;horizontalStack=0;resizeParent=1;resizeParentMax=0;resizeLast=0;collapsible=1;marginBottom=0;whiteSpace=wrap;html=1;" vertex="1" parent="1">
          <mxGeometry x="1010" y="533.5" width="289" height="86" as="geometry" />
        </mxCell>
        <mxCell id="Pw4hpHj4lTCNHb1y_Igf-35" value="Instantiation&lt;div&gt;&lt;br&gt;&lt;/div&gt;" style="text;strokeColor=#F5DEB3;strokeWidth=2;fillColor=#F5DEB3;align=center;verticalAlign=top;spacingLeft=4;spacingRight=4;overflow=hidden;rotatable=0;points=[[0,0.5],[1,0.5]];portConstraint=eastwest;whiteSpace=wrap;html=1;" vertex="1" parent="Pw4hpHj4lTCNHb1y_Igf-34">
          <mxGeometry y="60" width="289" height="26" as="geometry" />
        </mxCell>
        <mxCell id="Pw4hpHj4lTCNHb1y_Igf-36" value="" style="endArrow=classic;html=1;rounded=0;exitX=0.89;exitY=1.096;exitDx=0;exitDy=0;exitPerimeter=0;entryX=0.481;entryY=-0.012;entryDx=0;entryDy=0;entryPerimeter=0;" edge="1" parent="1" source="Pw4hpHj4lTCNHb1y_Igf-31" target="Pw4hpHj4lTCNHb1y_Igf-38">
          <mxGeometry relative="1" as="geometry">
            <mxPoint x="1495" y="403" as="sourcePoint" />
            <mxPoint x="1600" y="520" as="targetPoint" />
          </mxGeometry>
        </mxCell>
        <mxCell id="Pw4hpHj4lTCNHb1y_Igf-37" value="has or had instantiation" style="edgeLabel;resizable=0;html=1;;align=center;verticalAlign=middle;" connectable="0" vertex="1" parent="Pw4hpHj4lTCNHb1y_Igf-36">
          <mxGeometry relative="1" as="geometry" />
        </mxCell>
        <mxCell id="Pw4hpHj4lTCNHb1y_Igf-38" value="Original (parchment) of &quot;Comisión que el proveedor general Crisóbal de Barros da al comisario Miguel de Cervantes Saavedra...&quot;" style="swimlane;fontStyle=0;childLayout=stackLayout;horizontal=1;startSize=60;strokeColor=#F5DEB3;strokeWidth=2;fillColor=none;horizontalStack=0;resizeParent=1;resizeParentMax=0;resizeLast=0;collapsible=1;marginBottom=0;whiteSpace=wrap;html=1;" vertex="1" parent="1">
          <mxGeometry x="2010" y="530" width="289" height="86" as="geometry" />
        </mxCell>
        <mxCell id="Pw4hpHj4lTCNHb1y_Igf-39" value="Instantiation&lt;div&gt;&lt;br&gt;&lt;/div&gt;" style="text;strokeColor=#F5DEB3;strokeWidth=2;fillColor=#F5DEB3;align=center;verticalAlign=top;spacingLeft=4;spacingRight=4;overflow=hidden;rotatable=0;points=[[0,0.5],[1,0.5]];portConstraint=eastwest;whiteSpace=wrap;html=1;" vertex="1" parent="Pw4hpHj4lTCNHb1y_Igf-38">
          <mxGeometry y="60" width="289" height="26" as="geometry" />
        </mxCell>
        <mxCell id="Pw4hpHj4lTCNHb1y_Igf-42" value="Transcribing of &quot;Comisión que el proveedor general Crisóbal de Barros da al comisario Miguel de Cervantes Saavedra..&quot;" style="swimlane;fontStyle=0;childLayout=stackLayout;horizontal=1;startSize=53;strokeColor=#FFFAA0;strokeWidth=3;fillColor=none;horizontalStack=0;resizeParent=1;resizeParentMax=0;resizeLast=0;collapsible=1;marginBottom=0;whiteSpace=wrap;html=1;" vertex="1" parent="1">
          <mxGeometry x="1540" y="533.5" width="250" height="79" as="geometry" />
        </mxCell>
        <mxCell id="Pw4hpHj4lTCNHb1y_Igf-43" value="rico:Activity" style="text;strokeColor=#FFFAA0;strokeWidth=3;fillColor=none;align=center;verticalAlign=top;spacingLeft=4;spacingRight=4;overflow=hidden;rotatable=0;points=[[0,0.5],[1,0.5]];portConstraint=eastwest;whiteSpace=wrap;html=1;" vertex="1" parent="Pw4hpHj4lTCNHb1y_Igf-42">
          <mxGeometry y="53" width="250" height="26" as="geometry" />
        </mxCell>
        <mxCell id="Pw4hpHj4lTCNHb1y_Igf-44" value="" style="endArrow=classic;html=1;rounded=0;exitX=1;exitY=0.5;exitDx=0;exitDy=0;entryX=0;entryY=0.5;entryDx=0;entryDy=0;" edge="1" parent="1" source="Pw4hpHj4lTCNHb1y_Igf-42" target="Pw4hpHj4lTCNHb1y_Igf-38">
          <mxGeometry relative="1" as="geometry">
            <mxPoint x="1800" y="572.5" as="sourcePoint" />
            <mxPoint x="1990" y="572.5" as="targetPoint" />
          </mxGeometry>
        </mxCell>
        <mxCell id="Pw4hpHj4lTCNHb1y_Igf-45" value="affects or affected" style="edgeLabel;resizable=0;html=1;;align=center;verticalAlign=middle;" connectable="0" vertex="1" parent="Pw4hpHj4lTCNHb1y_Igf-44">
          <mxGeometry relative="1" as="geometry" />
        </mxCell>
        <mxCell id="Pw4hpHj4lTCNHb1y_Igf-46" value="" style="endArrow=classic;html=1;rounded=0;exitX=0;exitY=0.5;exitDx=0;exitDy=0;entryX=0.997;entryY=0.436;entryDx=0;entryDy=0;entryPerimeter=0;" edge="1" parent="1" source="Pw4hpHj4lTCNHb1y_Igf-42" target="Pw4hpHj4lTCNHb1y_Igf-34">
          <mxGeometry relative="1" as="geometry">
            <mxPoint x="1525" y="576" as="sourcePoint" />
            <mxPoint x="1305" y="576" as="targetPoint" />
          </mxGeometry>
        </mxCell>
        <mxCell id="Pw4hpHj4lTCNHb1y_Igf-47" value="results or resulted in" style="edgeLabel;resizable=0;html=1;;align=center;verticalAlign=middle;" connectable="0" vertex="1" parent="Pw4hpHj4lTCNHb1y_Igf-46">
          <mxGeometry relative="1" as="geometry" />
        </mxCell>
        <mxCell id="Pw4hpHj4lTCNHb1y_Igf-48" value="" style="endArrow=classic;html=1;rounded=0;curved=1;entryX=1;entryY=0;entryDx=0;entryDy=0;exitX=0;exitY=0;exitDx=0;exitDy=0;" edge="1" parent="1" source="Pw4hpHj4lTCNHb1y_Igf-38" target="Pw4hpHj4lTCNHb1y_Igf-34">
          <mxGeometry relative="1" as="geometry">
            <mxPoint x="1555" y="470" as="sourcePoint" />
            <mxPoint x="1335" y="470" as="targetPoint" />
            <Array as="points">
              <mxPoint x="1660" y="370" />
            </Array>
          </mxGeometry>
        </mxCell>
        <mxCell id="Pw4hpHj4lTCNHb1y_Igf-49" value="has or had derived instantiation" style="edgeLabel;resizable=0;html=1;;align=center;verticalAlign=middle;" connectable="0" vertex="1" parent="Pw4hpHj4lTCNHb1y_Igf-48">
          <mxGeometry relative="1" as="geometry">
            <mxPoint x="10" y="78" as="offset" />
          </mxGeometry>
        </mxCell>
        <mxCell id="Pw4hpHj4lTCNHb1y_Igf-50" value="Transcription" style="swimlane;fontStyle=0;childLayout=stackLayout;horizontal=1;startSize=26;fillColor=none;horizontalStack=0;resizeParent=1;resizeParentMax=0;resizeLast=0;collapsible=1;marginBottom=0;whiteSpace=wrap;html=1;" vertex="1" parent="1">
          <mxGeometry x="1610.5" y="700" width="109" height="52" as="geometry" />
        </mxCell>
        <mxCell id="Pw4hpHj4lTCNHb1y_Igf-51" value="rico:ActivityType&lt;div&gt;&lt;br&gt;&lt;/div&gt;" style="text;strokeColor=none;strokeColor=none;fillColor=none;align=center;verticalAlign=top;spacingLeft=4;spacingRight=4;overflow=hidden;rotatable=0;points=[[0,0.5],[1,0.5]];portConstraint=eastwest;whiteSpace=wrap;html=1;" vertex="1" parent="Pw4hpHj4lTCNHb1y_Igf-50">
          <mxGeometry y="26" width="109" height="26" as="geometry" />
        </mxCell>
        <mxCell id="Pw4hpHj4lTCNHb1y_Igf-52" value="" style="endArrow=classic;html=1;rounded=0;exitX=0.502;exitY=1.045;exitDx=0;exitDy=0;exitPerimeter=0;entryX=0.5;entryY=0;entryDx=0;entryDy=0;" edge="1" parent="1" source="Pw4hpHj4lTCNHb1y_Igf-43" target="Pw4hpHj4lTCNHb1y_Igf-50">
          <mxGeometry relative="1" as="geometry">
            <mxPoint x="1660" y="610" as="sourcePoint" />
            <mxPoint x="1661" y="700" as="targetPoint" />
          </mxGeometry>
        </mxCell>
        <mxCell id="Pw4hpHj4lTCNHb1y_Igf-53" value="activity type" style="edgeLabel;resizable=0;html=1;;align=center;verticalAlign=middle;" connectable="0" vertex="1" parent="Pw4hpHj4lTCNHb1y_Igf-52">
          <mxGeometry relative="1" as="geometry" />
        </mxCell>
        <mxCell id="Pw4hpHj4lTCNHb1y_Igf-56" value="" style="endArrow=classic;html=1;rounded=0;entryX=0.075;entryY=-0.002;entryDx=0;entryDy=0;entryPerimeter=0;" edge="1" parent="1" source="Pw4hpHj4lTCNHb1y_Igf-10" target="Pw4hpHj4lTCNHb1y_Igf-34">
          <mxGeometry relative="1" as="geometry">
            <mxPoint x="800" y="481.006" as="sourcePoint" />
            <mxPoint x="1260" y="480" as="targetPoint" />
          </mxGeometry>
        </mxCell>
        <mxCell id="Pw4hpHj4lTCNHb1y_Igf-57" value="has or had part" style="edgeLabel;resizable=0;html=1;;align=center;verticalAlign=middle;" connectable="0" vertex="1" parent="Pw4hpHj4lTCNHb1y_Igf-56">
          <mxGeometry relative="1" as="geometry" />
        </mxCell>
        <mxCell id="Pw4hpHj4lTCNHb1y_Igf-59" value="" style="endArrow=classic;html=1;rounded=0;exitX=0;exitY=0;exitDx=0;exitDy=0;entryX=0.927;entryY=1.14;entryDx=0;entryDy=0;entryPerimeter=0;" edge="1" parent="1" source="Pw4hpHj4lTCNHb1y_Igf-29" target="Pw4hpHj4lTCNHb1y_Igf-64">
          <mxGeometry relative="1" as="geometry">
            <mxPoint x="1328" y="280" as="sourcePoint" />
            <mxPoint x="1260" y="160" as="targetPoint" />
          </mxGeometry>
        </mxCell>
        <mxCell id="Pw4hpHj4lTCNHb1y_Igf-60" value="has or had holder" style="edgeLabel;resizable=0;html=1;;align=center;verticalAlign=middle;" connectable="0" vertex="1" parent="Pw4hpHj4lTCNHb1y_Igf-59">
          <mxGeometry relative="1" as="geometry" />
        </mxCell>
        <mxCell id="Pw4hpHj4lTCNHb1y_Igf-61" value="Archivo General de Indias" style="swimlane;fontStyle=0;childLayout=stackLayout;horizontal=1;startSize=26;strokeColor=#C6D9F1;strokeWidth=3;fillColor=none;horizontalStack=0;resizeParent=1;resizeParentMax=0;resizeLast=0;collapsible=1;marginBottom=0;whiteSpace=wrap;html=1;" vertex="1" parent="1">
          <mxGeometry x="1150" y="70" width="205" height="104" as="geometry" />
        </mxCell>
        <mxCell id="Pw4hpHj4lTCNHb1y_Igf-62" value="Corporate Body" style="text;strokeColor=#C6D9F1;strokeWidth=3;fillColor=none;align=center;verticalAlign=top;spacingLeft=4;spacingRight=4;overflow=hidden;rotatable=0;points=[[0,0.5],[1,0.5]];portConstraint=eastwest;whiteSpace=wrap;html=1;" vertex="1" parent="Pw4hpHj4lTCNHb1y_Igf-61">
          <mxGeometry y="26" width="205" height="26" as="geometry" />
        </mxCell>
        <mxCell id="Pw4hpHj4lTCNHb1y_Igf-63" value="Place" style="text;strokeColor=#C6D9F1;strokeWidth=3;fillColor=none;align=center;verticalAlign=top;spacingLeft=4;spacingRight=4;overflow=hidden;rotatable=0;points=[[0,0.5],[1,0.5]];portConstraint=eastwest;whiteSpace=wrap;html=1;" vertex="1" parent="Pw4hpHj4lTCNHb1y_Igf-61">
          <mxGeometry y="52" width="205" height="26" as="geometry" />
        </mxCell>
        <mxCell id="Pw4hpHj4lTCNHb1y_Igf-64" value="Record Set" style="text;strokeColor=#C6D9F1;strokeWidth=3;fillColor=none;align=center;verticalAlign=top;spacingLeft=4;spacingRight=4;overflow=hidden;rotatable=0;points=[[0,0.5],[1,0.5]];portConstraint=eastwest;whiteSpace=wrap;html=1;" vertex="1" parent="Pw4hpHj4lTCNHb1y_Igf-61">
          <mxGeometry y="78" width="205" height="26" as="geometry" />
        </mxCell>
        <mxCell id="Pw4hpHj4lTCNHb1y_Igf-65" value="Registration of citations to Spanish archival material&amp;nbsp;" style="swimlane;fontStyle=0;childLayout=stackLayout;horizontal=1;startSize=40;strokeColor=#FFFAA0;strokeWidth=3;fillColor=none;horizontalStack=0;resizeParent=1;resizeParentMax=0;resizeLast=0;collapsible=1;marginBottom=0;whiteSpace=wrap;html=1;" vertex="1" parent="1">
          <mxGeometry x="670" y="89" width="220" height="66" as="geometry" />
        </mxCell>
        <mxCell id="Pw4hpHj4lTCNHb1y_Igf-66" value="Activity" style="text;strokeColor=#FFFAA0;strokeWidth=3;fillColor=none;align=center;verticalAlign=top;spacingLeft=4;spacingRight=4;overflow=hidden;rotatable=0;points=[[0,0.5],[1,0.5]];portConstraint=eastwest;whiteSpace=wrap;html=1;" vertex="1" parent="Pw4hpHj4lTCNHb1y_Igf-65">
          <mxGeometry y="40" width="220" height="26" as="geometry" />
        </mxCell>
        <mxCell id="Pw4hpHj4lTCNHb1y_Igf-67" value="" style="endArrow=classic;html=1;rounded=0;exitX=0;exitY=0.5;exitDx=0;exitDy=0;entryX=0.56;entryY=0;entryDx=0;entryDy=0;entryPerimeter=0;" edge="1" parent="1" source="Pw4hpHj4lTCNHb1y_Igf-65" target="Pw4hpHj4lTCNHb1y_Igf-1">
          <mxGeometry relative="1" as="geometry">
            <mxPoint x="692" y="232" as="sourcePoint" />
            <mxPoint x="450" y="230" as="targetPoint" />
          </mxGeometry>
        </mxCell>
        <mxCell id="Pw4hpHj4lTCNHb1y_Igf-68" value="results or resulted in" style="edgeLabel;resizable=0;html=1;;align=center;verticalAlign=middle;" connectable="0" vertex="1" parent="Pw4hpHj4lTCNHb1y_Igf-67">
          <mxGeometry relative="1" as="geometry" />
        </mxCell>
        <mxCell id="Pw4hpHj4lTCNHb1y_Igf-69" value="" style="endArrow=classic;html=1;rounded=0;exitX=1;exitY=0.5;exitDx=0;exitDy=0;entryX=0;entryY=0.038;entryDx=0;entryDy=0;entryPerimeter=0;" edge="1" parent="1" source="Pw4hpHj4lTCNHb1y_Igf-65" target="Pw4hpHj4lTCNHb1y_Igf-63">
          <mxGeometry relative="1" as="geometry">
            <mxPoint x="966" y="132" as="sourcePoint" />
            <mxPoint x="780" y="290" as="targetPoint" />
          </mxGeometry>
        </mxCell>
        <mxCell id="Pw4hpHj4lTCNHb1y_Igf-70" value="affects or affected" style="edgeLabel;resizable=0;html=1;;align=center;verticalAlign=middle;" connectable="0" vertex="1" parent="Pw4hpHj4lTCNHb1y_Igf-69">
          <mxGeometry relative="1" as="geometry" />
        </mxCell>
      </root>
    </mxGraphModel>
  </diagram>
</mxfile>
